PathFileType	4	(X/Y/Z)	./resultDataOpenSim/trcMotMarkerGrf/sub09/qtm-15-02.trc
DataRate	CameraRate	NumFrames	NumMarkers	Units	OrigDataRate	OrigDataStartFrame	OrigNumFrames
250.000000	250.000000	14	24	m	250.000000	129	515
Frame#	Time	L.Toe.Tip			R.Toe.Tip			L.Ankle.Lat			R.Ankle.Lat			L.Ankle.Med			R.Ankle.Med			L.Heel			R.Heel			L.Knee.Lat			R.Knee.Lat			L.Knee.Med			R.Knee.Med			L.Thigh.Upper			R.Thigh.Upper			L.ASIS			R.ASIS			V.Sacral			L.Acromium			R.Acromium			C7			L.Elbow			R.Elbow			L.Wrist.Lat			R.Wrist.Lat
		X1	Y1	Z1	X2	Y2	Z2	X3	Y3	Z3	X4	Y4	Z4	X5	Y5	Z5	X6	Y6	Z6	X7	Y7	Z7	X8	Y8	Z8	X9	Y9	Z9	X10	Y10	Z10	X11	Y11	Z11	X12	Y12	Z12	X13	Y13	Z13	X14	Y14	Z14	X15	Y15	Z15	X16	Y16	Z16	X17	Y17	Z17	X18	Y18	Z18	X19	Y19	Z19	X20	Y20	Z20	X21	Y21	Z21	X22	Y22	Z22	X23	Y23	Z23	X24	Y24	Z24

129	0.512	-0.062033516	0.12364756	-0.005842808	-0.60956104	0.03906808	0.079479461	-0.21799755	0.1116713	-0.043739179	-0.75869007	0.060233036	0.11380252	-0.19719971	0.13515435	0.051979174	-0.74425069	0.091852501	0.019537879	-0.26625655	0.053824548	0.010937237	-0.82495309	0.03444498	0.062646535	-0.34259314	0.50971073	-0.081084751	-0.60448114	0.48845695	0.18275236	-0.34738443	0.50251184	0.04490176	-0.62412846	0.48456167	0.054570123	-0.53432146	0.88316275	-0.12228708	-0.59591959	0.89350818	0.24652161	-0.47102546	0.97294924	-0.054677893	-0.48826296	0.97993554	0.18632064	-0.64710844	1.0264066	0.047944846	-0.50002319	1.4227653	-0.11267069	-0.51594623	1.439873	0.21834873	-0.57380706	1.4810486	0.051074915	-0.66623961	1.1015122	-0.17371701	-0.63636965	1.0997273	0.32744971	-0.56375466	0.85857196	-0.20584284	-0.46772405	0.88326385	0.31762274
130	0.516	-0.048325084	0.12696396	-0.0042071922	-0.60957045	0.039036635	0.079562088	-0.20398644	0.11295664	-0.043111673	-0.75873553	0.060395049	0.11368997	-0.18409962	0.13657572	0.052721641	-0.74409604	0.091878353	0.019599884	-0.25155588	0.054227596	0.010822827	-0.82494903	0.034577333	0.062539965	-0.3364021	0.50809192	-0.080452214	-0.60212476	0.4877083	0.18275444	-0.34147818	0.50058498	0.045886283	-0.62157164	0.48392246	0.054648775	-0.52819005	0.88133963	-0.12209935	-0.59061337	0.89255295	0.24641066	-0.46500497	0.97137989	-0.054519125	-0.48253158	0.97880725	0.18650639	-0.64118577	1.0253093	0.047454006	-0.49428048	1.4213029	-0.11277785	-0.5105236	1.4384558	0.2183057	-0.568181	1.4796961	0.050891549	-0.66026395	1.1001587	-0.17412223	-0.63058425	1.0981055	0.32742671	-0.558812	0.85693841	-0.2060017	-0.46159897	0.88199653	0.31754984
131	0.52	-0.035169621	0.13014522	-0.0026133762	-0.60957751	0.039008752	0.07964244	-0.1904499	0.11427202	-0.042595221	-0.75870422	0.06043903	0.11363625	-0.1714933	0.13785794	0.05338149	-0.74393597	0.091924905	0.019636824	-0.23741575	0.054621962	0.010601736	-0.82494827	0.034734368	0.06243748	-0.33020751	0.50656602	-0.079873317	-0.59972383	0.48695516	0.18269504	-0.33558785	0.49868453	0.046832245	-0.61882168	0.48328572	0.054821502	-0.52204832	0.87949233	-0.12195575	-0.5852316	0.89155307	0.24629187	-0.45895398	0.96981376	-0.054392169	-0.47675152	0.97764155	0.18664278	-0.63517824	1.0238814	0.047245857	-0.4884972	1.4198122	-0.11288248	-0.50507336	1.437005	0.21824012	-0.56256451	1.4783166	0.050712537	-0.65440986	1.0987585	-0.17446835	-0.62478177	1.0964469	0.3273693	-0.55387126	0.85530165	-0.20621316	-0.45546073	0.88067178	0.31746528
132	0.524	-0.022580208	0.13315727	-0.0010746363	-0.60957904	0.038973751	0.079727009	-0.17742751	0.11551389	-0.042151086	-0.75867302	0.060473687	0.11361639	-0.15939008	0.13896187	0.053950652	-0.74376119	0.091982036	0.019650756	-0.22379446	0.054926085	0.010347521	-0.82494811	0.034917451	0.062335364	-0.32393786	0.50511628	-0.079331955	-0.59721693	0.48619593	0.18266757	-0.32972237	0.49681423	0.047708758	-0.61591275	0.48264112	0.055075472	-0.5158949	0.87762469	-0.12184176	-0.57977021	0.89049799	0.24617187	-0.4528978	0.96823804	-0.054297284	-0.47093146	0.97643363	0.18673062	-0.62914167	1.0222333	0.047189342	-0.48267356	1.4182903	-0.11298708	-0.4995765	1.4355107	0.21815199	-0.55696879	1.4769163	0.050559094	-0.64863125	1.097322	-0.17474609	-0.61895805	1.0947525	0.32727737	-0.54890412	0.85365695	-0.20645939	-0.44929931	0.8792907	0.31736072
133	0.528	-0.010518106	0.13600501	0.000409232	-0.60957261	0.038924072	0.079822911	-0.16493299	0.11660819	-0.041732221	-0.75865853	0.06053493	0.11360651	-0.14778197	0.13990181	0.054444095	-0.74356386	0.092043426	0.019645914	-0.21065011	0.055068538	0.010157706	-0.82494351	0.035132479	0.062224814	-0.31755466	0.50372392	-0.07882895	-0.59456415	0.48540518	0.18270437	-0.32391879	0.49499991	0.048451886	-0.61291801	0.48196461	0.055344155	-0.50971283	0.87573665	-0.12174268	-0.57422466	0.88937607	0.24605319	-0.44684684	0.96664389	-0.054231817	-0.46508527	0.97518398	0.18677743	-0.62310414	1.0205089	0.04717475	-0.47682389	1.4167362	-0.1130988	-0.49402235	1.4339629	0.21803574	-0.55137682	1.4754935	0.050434836	-0.64282629	1.0958556	-0.17499431	-0.61310619	1.0930263	0.32715031	-0.54384989	0.85197227	-0.20669198	-0.44312223	0.87785828	0.31723665
134	0.532	0.0010403913	0.1386842	0.001792244	-0.60955787	0.038861416	0.079927479	-0.15298514	0.11751779	-0.041307214	-0.75860865	0.060577787	0.11359042	-0.13666128	0.14073907	0.054902217	-0.74333964	0.09210946	0.019622747	-0.19799405	0.055020159	0.010203676	-0.82493033	0.03538517	0.06209403	-0.31103976	0.50238588	-0.07837781	-0.59178793	0.48455318	0.18276476	-0.31818393	0.49326221	0.049007183	-0.60988706	0.48124306	0.05556508	-0.50347565	0.87382969	-0.12164654	-0.56859321	0.88818189	0.24593884	-0.44080785	0.96502673	-0.054195843	-0.45921439	0.97389268	0.18679295	-0.61707719	1.0187835	0.04715068	-0.47096486	1.4151518	-0.11322497	-0.48842477	1.4323637	0.21788992	-0.54575619	1.4740273	0.050317315	-0.63694433	1.0943572	-0.17524596	-0.60722288	1.0912755	0.32698866	-0.53866751	0.85022185	-0.20687717	-0.4369393	0.87638026	0.31710393
135	0.536	0.012052072	0.14113501	0.0029625886	-0.60953375	0.038793093	0.080024239	-0.14163479	0.11820733	-0.040847274	-0.75839244	0.06045487	0.11357805	-0.12601417	0.14151735	0.055362487	-0.74308762	0.092181854	0.019577006	-0.18589385	0.054799278	0.01064385	-0.8249085	0.035672673	0.061935422	-0.30433557	0.50111861	-0.078003469	-0.58896422	0.48362633	0.18279149	-0.31243263	0.4916101	0.049380042	-0.60684121	0.48047262	0.055716014	-0.49716578	0.87190675	-0.12153069	-0.5628856	0.88691638	0.24583674	-0.43477883	0.96338335	-0.05418706	-0.45330139	0.9725544	0.18678603	-0.61107063	1.0170522	0.047102731	-0.46510481	1.4135392	-0.11336548	-0.48280427	1.4307272	0.21772589	-0.54009728	1.4724903	0.050184079	-0.63099262	1.0928221	-0.17550949	-0.60131162	1.0895055	0.32679584	-0.53336612	0.84841107	-0.20702225	-0.43075337	0.87485905	0.31697188
136	0.54	0.022449648	0.14326771	0.0038062937	-0.60949481	0.038718401	0.08009421	-0.1309528	0.11862996	-0.040318457	-0.75788691	0.060018917	0.11359578	-0.11581652	0.14221979	0.055847533	-0.74281245	0.092259788	0.019498708	-0.17444196	0.054448837	0.011468299	-0.82487945	0.035982894	0.061748828	-0.29736905	0.49993597	-0.077735733	-0.58617484	0.48262526	0.18274615	-0.30654915	0.4900443	0.049605082	-0.6037689	0.4796505	0.055802099	-0.49078092	0.86996571	-0.12137041	-0.55712365	0.88558248	0.24575542	-0.42874399	0.96170909	-0.054196567	-0.44733541	0.97116323	0.18676549	-0.60509534	1.0152486	0.047041733	-0.45924004	1.4119024	-0.11351105	-0.47716147	1.4290663	0.21755708	-0.53441217	1.4708821	0.050037776	-0.62499538	1.0912522	-0.17578119	-0.59537742	1.0877162	0.32657547	-0.52797956	0.84656447	-0.20715507	-0.42456358	0.87329592	0.31684156
137	0.544	0.032208836	0.14500505	0.0042895788	-0.6094281	0.038624342	0.080122091	-0.12098173	0.11874521	-0.039702918	-0.75718087	0.059379514	0.11363341	-0.10604859	0.14278244	0.056372407	-0.74252612	0.092343541	0.01937244	-0.16372441	0.054010179	0.012473536	-0.82483996	0.036308184	0.061535319	-0.29017074	0.4988252	-0.077566802	-0.5834324	0.48155716	0.18261747	-0.30044936	0.48855484	0.049708413	-0.60061252	0.47877587	0.055834431	-0.48433148	0.86799811	-0.12116287	-0.55132958	0.88418511	0.24569511	-0.42268866	0.95999742	-0.054215593	-0.44132914	0.96971909	0.18674392	-0.59914322	1.0132865	0.047010612	-0.4533614	1.410246	-0.11365382	-0.47148489	1.4273846	0.21738614	-0.52870629	1.4692351	0.049895739	-0.61896757	1.0896531	-0.17605725	-0.58942002	1.0859027	0.32632769	-0.52253474	0.84470288	-0.20729751	-0.41837074	0.87169507	0.31671005
138	0.548	0.04135355	0.14628449	0.0044641752	-0.60931684	0.038502116	0.08009534	-0.11171553	0.11853283	-0.039011868	-0.75662414	0.058969759	0.11361448	-0.09671107	0.14312555	0.056935953	-0.74223985	0.092440835	0.019185743	-0.15379378	0.053501125	0.01344875	-0.82478218	0.036657276	0.061290887	-0.28289643	0.49775284	-0.077430153	-0.58063681	0.48044051	0.18242547	-0.29406917	0.48713156	0.049718726	-0.59730567	0.47784997	0.055819263	-0.4778334	0.86599775	-0.12093558	-0.54551785	0.88273305	0.2456465	-0.41660922	0.95824501	-0.054239983	-0.4353077	0.96822515	0.18673298	-0.59315815	1.0111526	0.047066865	-0.44746448	1.4085705	-0.11379726	-0.46576819	1.4256807	0.21720707	-0.52297688	1.4675771	0.049762572	-0.61291806	1.0880279	-0.17633316	-0.58343838	1.0840624	0.32605259	-0.51704282	0.84283535	-0.20745809	-0.41217893	0.87006024	0.31657539
139	0.552	0.04992309	0.14704736	0.0044067151	-0.60916	0.038364262	0.080018617	-0.10312275	0.11799777	-0.03827499	-0.75651492	0.059161385	0.11345394	-0.087830255	0.14317847	0.057517877	-0.74194466	0.092564024	0.018946092	-0.14465478	0.052906485	0.014336119	-0.82470055	0.037050654	0.061010696	-0.27567076	0.49669102	-0.077264506	-0.57759809	0.47930828	0.18223078	-0.28733906	0.48578797	0.049688929	-0.59382962	0.47687082	0.055759052	-0.47130759	0.86397017	-0.12072725	-0.53969668	0.88123451	0.24559955	-0.41050491	0.95645615	-0.054266871	-0.42928564	0.9666794	0.18673554	-0.58707165	1.0089646	0.047212991	-0.44155224	1.4068714	-0.11395338	-0.46001008	1.4239528	0.21701256	-0.51722832	1.4659001	0.049623555	-0.60685955	1.0863765	-0.17660013	-0.57744025	1.0821998	0.32575539	-0.51150337	0.84096358	-0.20763617	-0.40599029	0.86839187	0.31643814
140	0.556	0.057953055	0.14724289	0.0041791364	-0.6089843	0.038237399	0.079923978	-0.095163725	0.11716954	-0.037525336	-0.7567349	0.059812087	0.11315283	-0.079445523	0.14290209	0.058105067	-0.74160707	0.092719115	0.018684194	-0.1362703	0.0521918	0.015216345	-0.82459661	0.037507915	0.060698575	-0.26847126	0.49562823	-0.077069072	-0.57409439	0.47819219	0.18212495	-0.28017951	0.48457109	0.049688898	-0.59021415	0.47583408	0.055661704	-0.46478281	0.8619338	-0.12056524	-0.53387231	0.87969098	0.24554684	-0.40437255	0.9546404	-0.054293658	-0.42325852	0.96507227	0.18674996	-0.58088135	1.0068806	0.047374237	-0.43563059	1.4051442	-0.11413433	-0.45421341	1.422199	0.21680029	-0.51146872	1.4641815	0.049463699	-0.60081113	1.0846972	-0.1768462	-0.57144153	1.0803222	0.32544454	-0.50591209	0.83908673	-0.20782845	-0.39980303	0.86669014	0.31630016
141	0.56	0.065475182	0.14683914	0.0038328155	-0.60881982	0.038138075	0.079844293	-0.087790211	0.1160855	-0.036788629	-0.75682274	0.06035648	0.11281133	-0.071574256	0.14229788	0.058703268	-0.74119673	0.092905114	0.018429181	-0.12857081	0.051322549	0.016249253	-0.82447725	0.038037755	0.060366384	-0.26120453	0.4945609	-0.076867487	-0.57004231	0.4770933	0.1821514	-0.27250013	0.48354385	0.049784005	-0.58650384	0.47474369	0.055542844	-0.45828757	0.85991187	-0.12046327	-0.5280512	0.87809687	0.24547768	-0.39821023	0.95280623	-0.054320448	-0.41721941	0.96339494	0.18677802	-0.57462705	1.0049611	0.047512026	-0.42970384	1.4033904	-0.11434499	-0.44838361	1.4204198	0.21657525	-0.50569509	1.4624234	0.049282764	-0.59479068	1.0829911	-0.17706226	-0.5654563	1.0784349	0.32512528	-0.50026771	0.83720296	-0.20803212	-0.39361942	0.86495643	0.31616307
142	0.564	0.072521429	0.14583217	0.0034183352	-0.60867325	0.038062696	0.079784697	-0.080946281	0.11477323	-0.036085973	-0.75650577	0.060464741	0.11252343	-0.0641756	0.14138527	0.059301099	-0.74071032	0.093126577	0.018186143	-0.12148197	0.050280171	0.017604228	-0.82434842	0.038636384	0.060021077	-0.25383387	0.49348382	-0.07666011	-0.56568195	0.47596644	0.18222836	-0.26423582	0.48275154	0.050016666	-0.58273249	0.47361466	0.055413283	-0.4518403	0.85792624	-0.12042602	-0.52224003	0.87644527	0.24537839	-0.39201859	0.95095813	-0.054349736	-0.41117063	0.96164824	0.18682367	-0.56830307	1.0031563	0.047709405	-0.423773	1.4016157	-0.11457952	-0.44252431	1.4186202	0.21634313	-0.49989331	1.4606561	0.049088721	-0.58878748	1.0812582	-0.17726531	-0.55949037	1.0765409	0.3247967	-0.49457258	0.83531118	-0.20824563	-0.38744803	0.86319302	0.31602918
